# xmcd
#
# Track frame offsets:
#	150
#	21829
#	47455
#	74985
#	107312
#	133654
#	159146
#	195010
#	227322
#	257299
#
# Disc length: 3830 seconds
#
# Revision: 1
# Processed by: cddbd v1.5.2PL0 Copyright (c) Steve Scherf et al.
# Submitted via: EZCDAudioConverter 8.0.2.1
#
DISCID=6c0ef40a
DTITLE=Various Artist - st. Đoàn Chuẩn, Từ Linh. Gửi Gió Cho Mây Ngàn Bay
DYEAR=2008
DGENRE=Retrospective Pop
TTITLE0=Ánh Tuyết - Tình nghệ sĩ
TTITLE1=Bích Hồng - Tà áo xanh
TTITLE2=Ánh Tuyết - Gởi người em gái
TTITLE3=Ngọc Lan - Lá thư
TTITLE4=Ánh Tuyết - Cánh hoa duyên kiếp
TTITLE5=Thành Long - Chuyển bến
TTITLE6=Ánh Tuyết - Lá đổ muôn chiều
TTITLE7=Thu Hà - Gửi Gió Cho Mây Ngàn Bay
TTITLE8=Trầm Tú - Thu quyến rũ
TTITLE9=Ánh Tuyết - Vĩnh biệt
EXTD=
EXTT0=
EXTT1=
EXTT2=
EXTT3=
EXTT4=
EXTT5=
EXTT6=
EXTT7=
EXTT8=
EXTT9=
PLAYORDER=
